<svg width="80" height="80" viewBox="0 0 80 80" fill="none" xmlns="http://www.w3.org/2000/svg">
<rect x="80" y="80" width="80" height="80" rx="40" transform="rotate(-180 80 80)" fill="#015C65" fill-opacity="0.3"/>
<path d="M56.0607 41.0607C56.6464 40.4749 56.6464 39.5251 56.0607 38.9393L46.5147 29.3934C45.9289 28.8076 44.9792 28.8076 44.3934 29.3934C43.8076 29.9792 43.8076 30.9289 44.3934 31.5147L52.8787 40L44.3934 48.4853C43.8076 49.0711 43.8076 50.0208 44.3934 50.6066C44.9792 51.1924 45.9289 51.1924 46.5147 50.6066L56.0607 41.0607ZM25 41.5L55 41.5L55 38.5L25 38.5L25 41.5Z" fill="white"/>
</svg>
