<svg width="65" height="65" viewBox="0 0 65 65" fill="none" xmlns="http://www.w3.org/2000/svg">
<path d="M30.8706 0.0101296C25.6543 0.0730984 14.4398 0.930286 8.16731 6.68482C3.50153 11.3079 1.87246 18.1431 1.68153 26.5951C1.52309 35.0167 1.33215 50.832 16.5767 55.1383V61.6972C16.5767 61.6972 16.4812 64.3215 18.2159 64.8598C20.3528 65.5362 21.5695 63.5172 23.6007 61.3478L27.389 57.0639C37.8195 57.9312 45.8084 55.9325 46.7286 55.6359C48.8451 54.9595 60.7665 53.4361 62.7145 37.6187C64.7132 21.2834 61.7415 10.9911 56.377 6.33544H56.3445C54.7256 4.8445 48.2195 0.103567 33.6839 0.0507546C33.6839 0.0507546 32.6053 -0.0223704 30.8706 0.00809837V0.0101296ZM31.0493 4.60279C32.5301 4.59263 33.43 4.6556 33.43 4.6556C45.7332 4.6881 51.6056 8.39107 52.9909 9.63825C57.5084 13.5098 59.8362 22.7886 58.132 36.4264C56.5131 49.6498 46.8443 50.4867 45.0548 51.0575C44.2931 51.3012 37.2568 53.0359 28.3925 52.4651C28.3925 52.4651 21.7909 60.4317 19.7272 62.4833C19.4001 62.8428 19.0182 62.9484 18.7745 62.8956C18.4251 62.8103 18.3195 62.3776 18.3398 61.7845L18.4028 50.899C5.47387 47.324 6.23559 33.8345 6.37371 26.7881C6.53215 19.7417 7.8545 13.977 11.7911 10.0729C17.0906 5.28122 26.6131 4.63529 31.0453 4.60279H31.0493ZM32.0243 11.6472C31.9179 11.6461 31.8124 11.6661 31.7137 11.706C31.6151 11.7459 31.5253 11.805 31.4496 11.8797C31.3739 11.9545 31.3137 12.0435 31.2725 12.1417C31.2314 12.2398 31.2101 12.3451 31.2098 12.4515C31.2098 12.9065 31.5795 13.2661 32.0243 13.2661C34.0383 13.2278 36.04 13.5886 37.9138 14.3277C39.7877 15.0667 41.4967 16.1695 42.9423 17.5723C45.8937 20.4384 47.3318 24.2897 47.3867 29.3251C47.3867 29.77 47.7462 30.1397 48.2012 30.1397V30.1072C48.4157 30.1077 48.6216 30.0235 48.7742 29.8728C48.9268 29.7221 49.0136 29.5172 49.0157 29.3028C49.1144 26.9326 48.73 24.5672 47.886 22.3502C47.042 20.1332 45.756 18.1109 44.1062 16.4064C40.8907 13.264 36.8161 11.6451 32.0243 11.6451V11.6472ZM21.3176 13.5098C20.7427 13.4258 20.1563 13.5412 19.6561 13.8368H19.6134C18.4521 14.5176 17.4059 15.378 16.5137 16.3861C15.7723 17.2433 15.3701 18.1106 15.2645 18.9454C15.2015 19.4431 15.2442 19.9408 15.3925 20.4161L15.4453 20.4486C16.2801 22.9023 17.3709 25.2626 18.7034 27.4848C20.4199 30.6068 22.5322 33.494 24.9881 36.075L25.0612 36.1806L25.177 36.2659L25.2501 36.3512L25.3354 36.4243C27.9257 38.8874 30.82 41.0096 33.9479 42.7395C37.5229 44.6854 39.6923 45.6056 40.9943 45.9875V46.0078C41.3762 46.1236 41.7236 46.1764 42.0729 46.1764C43.1826 46.0951 44.2331 45.6446 45.0568 44.8967C46.0603 44.0043 46.9111 42.9538 47.5756 41.7869V41.7665C48.1992 40.5925 47.9879 39.4814 47.0881 38.7298C45.286 37.1546 43.3373 35.7554 41.2686 34.5515C39.8832 33.8 38.4756 34.255 37.9048 35.0167L36.6881 36.5503C36.0645 37.312 34.9311 37.2064 34.9311 37.2064L34.8986 37.2267C26.4465 35.0675 24.1918 26.5098 24.1918 26.5098C24.1918 26.5098 24.0862 25.3459 24.8682 24.7528L26.3917 23.5259C27.1209 22.9328 27.6287 21.5272 26.8467 20.1398C25.6511 18.0683 24.255 16.1191 22.6786 14.3203C22.3339 13.8962 21.8504 13.6077 21.3136 13.5058L21.3176 13.5098ZM33.43 15.9229C32.3514 15.9229 32.3514 17.552 33.4401 17.552C34.7813 17.5738 36.1051 17.8596 37.3357 18.3932C38.5664 18.9268 39.6799 19.6977 40.6125 20.6618C41.4632 21.6003 42.1169 22.7 42.5349 23.8957C42.9529 25.0914 43.1267 26.3588 43.0459 27.6229C43.0496 27.8369 43.1369 28.0408 43.2892 28.1912C43.4414 28.3415 43.6465 28.4263 43.8604 28.4273L43.8929 28.47C44.1085 28.4684 44.3147 28.3821 44.4671 28.2296C44.6195 28.0772 44.7059 27.871 44.7075 27.6554C44.7806 24.4278 43.7772 21.7201 41.8089 19.5508C39.8304 17.3814 37.07 16.1647 33.5457 15.9229H33.43V15.9229ZM34.7645 20.3023C33.6534 20.2698 33.6107 21.9314 34.7117 21.9639C37.3889 22.102 38.6889 23.4548 38.8595 26.2376C38.8632 26.4489 38.9495 26.6503 39.0998 26.7987C39.2501 26.9471 39.4526 27.0308 39.6639 27.0318H39.6964C39.805 27.0272 39.9116 27.0009 40.01 26.9546C40.1083 26.9083 40.1965 26.8429 40.2693 26.7622C40.3421 26.6814 40.3981 26.587 40.434 26.4844C40.4699 26.3818 40.485 26.273 40.4784 26.1645C40.2875 22.5367 38.309 20.4933 34.797 20.3043H34.7645V20.3023Z" fill="black"/>
</svg>
